<!-- Generated by IcoMoon.io -->
<svg version="1.1" xmlns="http://www.w3.org/2000/svg" width="1024" height="1024" viewBox="0 0 1024 1024">
<title></title>
<g id="icomoon-ignore">
</g>
<path d="M325.743 277.943l-54.613 147.369h113.778l-59.164-147.369zM685.281 264.94h-59.164v242.726h59.164c40.96 0 72.818-8.669 91.022-30.341s27.307-52.013 27.307-91.022c0-43.344-9.102-73.685-27.307-91.022-18.204-21.672-50.062-30.341-91.022-30.341zM908.285 56.889h-796.444c-27.307 0-54.613 26.006-54.613 56.347v580.808c0 30.341 27.307 56.347 54.613 56.347h796.444c31.858 0 59.164-26.006 59.164-56.347v-580.808c0-30.341-22.756-56.347-59.164-56.347zM430.419 555.344l-31.858-86.688h-141.084l-31.858 86.688h-54.613l127.431-329.414h59.164l127.431 329.414h-54.613zM812.712 507.666c-27.307 30.341-68.267 43.344-122.88 43.344h-118.329v-329.414h122.88c54.613 0 95.573 13.003 122.88 43.344 27.307 26.006 40.96 69.35 40.96 121.363-4.551 52.013-18.204 95.357-45.511 121.363v0zM57.228 967.111h910.222v-108.36h-910.222v108.36z"></path>
</svg>
